<svg width="53" height="74" viewBox="0 0 53 74" fill="none" xmlns="http://www.w3.org/2000/svg">
<path d="M5.35244 24.9882C5.63996 19.7718 5.55972 7.40804 6.62079 2L14.8355 3.07818C13.1926 8.13025 14.151 17.3684 14.8355 21.356C17.5053 22.4855 24.2619 25.6379 29.9301 29.2113C35.5983 32.7847 34.9274 13.2782 33.8835 3.07818L40.7633 2L45.5818 21.356L49.8921 36.7217C50.2686 42.1982 51.5246 53.0957 50.621 56.2173C49.4915 60.1193 52.6747 74.1357 50.621 71.7226C48.9781 69.7921 17.163 69.8868 2 70.2462L3.07818 66.1263L2 62.5837C2.2396 52.1441 5.06493 30.2045 5.35244 24.9882Z" fill="#48C812" stroke="black" stroke-width="3"/>
<path d="M21.7676 24.5903C29.5244 28.4631 33.5224 24.468 34.3977 21.8691C33.6872 28.9926 31.501 29.7566 30.4967 29.2481L21.7676 24.5903Z" fill="#48C812" stroke="black" stroke-width="3"/>
<path d="M23.8948 40.3311C23.1806 42.3479 19.1648 44.1282 15.8295 42.9471C12.4941 41.766 11.1023 38.0708 11.8165 36.0539C12.5307 34.0371 16.9828 31.8627 20.3182 33.0438C23.6535 34.225 24.609 38.3142 23.8948 40.3311Z" fill="#F29DAE"/>
<path d="M27.3603 38.9395C27.9519 39.9071 27.3435 42.1547 25.7433 43.1331C24.1431 44.1116 22.1571 43.4503 21.5655 42.4827C20.9738 41.5151 21.5658 38.9562 23.166 37.9778C24.7662 36.9993 26.7686 37.9718 27.3603 38.9395Z" fill="#F29DAE"/>
<path d="M23.704 42.4775C24.2957 43.4452 23.6872 45.6928 22.087 46.6712C20.4868 47.6497 18.5009 46.9884 17.9092 46.0208C17.3176 45.0532 17.9096 42.4943 19.5098 41.5158C21.11 40.5374 23.1124 41.5099 23.704 42.4775Z" fill="#F29DAE"/>
<path d="M18.4423 42.4775C19.034 43.4452 18.4255 45.6928 16.8253 46.6712C15.2251 47.6497 13.2392 46.9884 12.6475 46.0208C12.0559 45.0532 12.6479 42.4943 14.2481 41.5158C15.8483 40.5374 17.8507 41.5099 18.4423 42.4775Z" fill="#F29DAE"/>
<path d="M26.5204 34.4443C27.1121 35.4119 26.5036 37.6596 24.9034 38.638C23.3033 39.6165 21.3173 38.9552 20.7256 37.9876C20.134 37.02 20.726 34.4611 22.3262 33.4826C23.9264 32.5042 25.9288 33.4767 26.5204 34.4443Z" fill="#F29DAE"/>
<path d="M22.6376 30.9072C23.2293 31.8748 22.6208 34.1225 21.0206 35.1009C19.4204 36.0794 17.4345 35.4181 16.8428 34.4505C16.2512 33.4828 16.8432 30.924 18.4434 29.9455C20.0436 28.9671 22.046 29.9396 22.6376 30.9072Z" fill="#F29DAE"/>
<path d="M15.7635 29.3175C16.859 29.611 17.9669 31.6592 17.4814 33.4709C16.996 35.2826 15.1011 36.1718 14.0055 35.8783C12.91 35.5847 11.5758 33.3224 12.0613 31.5107C12.5467 29.6989 14.668 29.0239 15.7635 29.3175Z" fill="#F29DAE"/>
<path d="M10.103 31.6625C11.1758 31.2942 13.2385 32.3746 13.8475 34.1486C14.4564 35.9226 13.3811 37.7184 12.3084 38.0867C11.2356 38.4549 8.86549 37.3232 8.25651 35.5492C7.64754 33.7752 9.03033 32.0307 10.103 31.6625Z" fill="#F29DAE"/>
<path d="M8.91823 38.3062C9.7202 37.5042 12.0479 37.5689 13.3741 38.8952C14.7004 40.2214 14.523 42.3071 13.721 43.109C12.9191 43.911 10.2927 43.9353 8.96645 42.609C7.64019 41.2828 8.11626 39.1082 8.91823 38.3062Z" fill="#F29DAE"/>
<path d="M35.8036 60.1627C35.192 61.8899 31.7528 63.4146 28.8964 62.4031C26.0399 61.3916 24.8479 58.2269 25.4596 56.4996C26.0712 54.7724 29.8841 52.9102 32.7406 53.9218C35.597 54.9333 36.4153 58.4354 35.8036 60.1627Z" fill="#F29DAE"/>
<path d="M38.7658 58.9693C39.2725 59.798 38.7514 61.7229 37.381 62.5609C36.0105 63.3988 34.3097 62.8325 33.803 62.0038C33.2963 61.1751 33.8033 58.9837 35.1738 58.1457C36.5442 57.3078 38.2591 58.1406 38.7658 58.9693Z" fill="#F29DAE"/>
<path d="M35.6369 62.0006C36.1436 62.8293 35.6225 64.7542 34.2521 65.5921C32.8816 66.4301 31.1808 65.8637 30.6741 65.035C30.1674 64.2064 30.6744 62.0149 32.0449 61.177C33.4153 60.339 35.1302 61.1719 35.6369 62.0006Z" fill="#F29DAE"/>
<path d="M31.131 62.0006C31.6377 62.8293 31.1166 64.7542 29.7462 65.5921C28.3758 66.4301 26.675 65.8637 26.1683 65.035C25.6616 64.2064 26.1686 62.0149 27.539 61.177C28.9094 60.339 30.6243 61.1719 31.131 62.0006Z" fill="#F29DAE"/>
<path d="M38.049 55.1207C38.5557 55.9494 38.0346 57.8743 36.6642 58.7122C35.2937 59.5502 33.5929 58.9838 33.0862 58.1552C32.5795 57.3265 33.0865 55.135 34.457 54.2971C35.8274 53.4591 37.5423 54.292 38.049 55.1207Z" fill="#F29DAE"/>
<path d="M34.7228 52.0904C35.2295 52.9191 34.7084 54.844 33.338 55.682C31.9676 56.5199 30.2668 55.9536 29.7601 55.1249C29.2534 54.2962 29.7604 52.1047 31.1308 51.2668C32.5012 50.4289 34.2161 51.2617 34.7228 52.0904Z" fill="#F29DAE"/>
<path d="M28.836 50.7297C29.7742 50.9811 30.723 52.7352 30.3073 54.2868C29.8915 55.8383 28.2687 56.5999 27.3305 56.3485C26.3923 56.0971 25.2496 54.1596 25.6654 52.608C26.0811 51.0564 27.8978 50.4783 28.836 50.7297Z" fill="#F29DAE"/>
<path d="M23.9877 52.7369C24.9064 52.4215 26.6729 53.3468 27.1945 54.866C27.716 56.3853 26.795 57.9233 25.8763 58.2387C24.9577 58.554 22.9278 57.5848 22.4063 56.0655C21.8848 54.5462 23.069 53.0522 23.9877 52.7369Z" fill="#F29DAE"/>
<path d="M22.9743 58.4273C23.6611 57.7404 25.6545 57.7958 26.7904 58.9316C27.9262 60.0675 27.7743 61.8536 27.0875 62.5405C26.4007 63.2273 24.1514 63.2481 23.0156 62.1122C21.8797 60.9764 22.2874 59.1141 22.9743 58.4273Z" fill="#F29DAE"/>
<path d="M44.3583 41.5727C43.9695 42.6706 41.7834 43.6398 39.9677 42.9968C38.1521 42.3538 37.3944 40.3422 37.7832 39.2443C38.1719 38.1464 40.5956 36.9628 42.4113 37.6057C44.2269 38.2487 44.7471 40.4748 44.3583 41.5727Z" fill="#F29DAE"/>
<path d="M46.2452 40.8151C46.5673 41.3418 46.236 42.5654 45.3649 43.098C44.4938 43.6306 43.4127 43.2706 43.0907 42.7439C42.7686 42.2172 43.0909 40.8242 43.962 40.2915C44.8331 39.7589 45.9231 40.2883 46.2452 40.8151Z" fill="#F29DAE"/>
<path d="M44.255 42.7408C44.577 43.2676 44.2458 44.4911 43.3747 45.0238C42.5036 45.5564 41.4225 45.1964 41.1004 44.6697C40.7784 44.1429 41.1006 42.75 41.9717 42.2173C42.8428 41.6847 43.9329 42.2141 44.255 42.7408Z" fill="#F29DAE"/>
<path d="M41.3897 42.7408C41.7118 43.2676 41.3806 44.4911 40.5095 45.0238C39.6384 45.5564 38.5573 45.1964 38.2352 44.6697C37.9131 44.1429 38.2354 42.75 39.1065 42.2173C39.9776 41.6847 41.0676 42.2141 41.3897 42.7408Z" fill="#F29DAE"/>
<path d="M45.7882 38.3688C46.1102 38.8955 45.779 40.1191 44.9079 40.6517C44.0368 41.1843 42.9557 40.8244 42.6336 40.2976C42.3116 39.7709 42.6338 38.3779 43.5049 37.8453C44.376 37.3126 45.4661 37.842 45.7882 38.3688Z" fill="#F29DAE"/>
<path d="M43.6749 36.443C43.997 36.9697 43.6657 38.1933 42.7946 38.7259C41.9235 39.2586 40.8424 38.8986 40.5203 38.3718C40.1983 37.8451 40.5205 36.4521 41.3916 35.9195C42.2627 35.3868 43.3528 35.9163 43.6749 36.443Z" fill="#F29DAE"/>
<path d="M39.9315 35.577C40.5278 35.7368 41.1309 36.8517 40.8667 37.838C40.6024 38.8242 39.5709 39.3083 38.9745 39.1485C38.3781 38.9887 37.6518 37.7571 37.9161 36.7709C38.1803 35.7846 39.3351 35.4172 39.9315 35.577Z" fill="#F29DAE"/>
<path d="M36.8504 36.8529C37.4344 36.6525 38.5573 37.2406 38.8888 38.2063C39.2203 39.172 38.6349 40.1496 38.0509 40.3501C37.467 40.5506 36.1767 39.9345 35.8452 38.9688C35.5137 38.003 36.2665 37.0534 36.8504 36.8529Z" fill="#F29DAE"/>
<path d="M36.2056 40.4706C36.6422 40.034 37.9093 40.0692 38.6313 40.7912C39.3533 41.5132 39.2567 42.6485 38.8202 43.0851C38.3836 43.5217 36.9539 43.5349 36.2319 42.8129C35.5099 42.091 35.7691 40.9072 36.2056 40.4706Z" fill="#F29DAE"/>
</svg>
