<svg width="77" height="70" viewBox="0 0 77 70" fill="none" xmlns="http://www.w3.org/2000/svg">
<path d="M49.2915 13.7572L17.2746 13.8672C15.5609 13.8731 13.587 12.8498 12.8142 12.3374C10.4509 9.85717 7.67905 9.37642 6.58853 9.44607C6.05449 9.40541 4.58116 9.71531 2.96012 11.2802C1.33907 12.8452 2.76178 16.5167 3.67577 18.1569L3.54134 19.0628C1.84054 24.5972 5.67808 26.1118 7.80945 26.1773C9.11672 25.9469 12.0933 24.9959 13.5416 23.035C14.99 21.0741 16.8144 20.608 17.5456 20.62C27.3085 20.6027 47.4218 20.5859 49.7722 20.6569C52.1227 20.7279 54.424 22.1958 55.2809 22.9209C57.0219 24.3173 61.1352 26.521 63.6607 24.1644C66.1862 21.8078 64.7213 17.667 63.6731 15.8912C65.9543 10.8133 62.5892 8.767 60.6214 8.37858C59.5834 8.22455 56.8663 8.49263 54.3022 10.7972C51.7382 13.1018 49.8934 13.7308 49.2915 13.7572Z" fill="white" stroke="black" stroke-width="3"/>
<path d="M58.7231 30.7338L26.7062 30.8438C24.9925 30.8497 23.0186 29.8263 22.2459 29.3139C19.8826 26.8337 17.1107 26.353 16.0202 26.4226C15.4861 26.382 14.0128 26.6919 12.3918 28.2568C10.7707 29.8217 12.1934 33.4933 13.1074 35.1335L12.973 36.0394C11.2722 41.5737 15.1097 43.0883 17.2411 43.1538C18.5484 42.9235 21.525 41.9725 22.9733 40.0116C24.4216 38.0507 26.2461 37.5846 26.9773 37.5966C36.7401 37.5793 56.8534 37.5624 59.2039 37.6334C61.5543 37.7044 63.8557 39.1724 64.7125 39.8975C66.4535 41.2939 70.5669 43.4975 73.0924 41.141C75.6178 38.7844 74.1529 34.6436 73.1048 32.8678C75.3859 27.7899 72.0208 25.7436 70.0531 25.3551C69.015 25.2011 66.2979 25.4692 63.7339 27.7738C61.1698 30.0783 59.325 30.7073 58.7231 30.7338Z" fill="white" stroke="black" stroke-width="3"/>
<path d="M49.2915 49.3412L17.2746 49.4512C15.5609 49.4571 13.587 48.4338 12.8142 47.9213C10.4509 45.4412 7.67905 44.9604 6.58853 45.0301C6.05449 44.9894 4.58116 45.2993 2.96012 46.8642C1.33907 48.4291 2.76178 52.1007 3.67577 53.7409L3.54134 54.6468C1.84054 60.1812 5.67808 61.6958 7.80945 61.7613C9.11672 61.5309 12.0933 60.5799 13.5416 58.619C14.99 56.6581 16.8144 56.192 17.5456 56.204C27.3085 56.1867 47.4218 56.1698 49.7722 56.2409C52.1227 56.3119 54.424 57.7798 55.2809 58.5049C57.0219 59.9013 61.1352 62.105 63.6607 59.7484C66.1862 57.3918 64.7213 53.251 63.6731 51.4752C65.9543 46.3973 62.5892 44.351 60.6214 43.9626C59.5834 43.8085 56.8663 44.0766 54.3022 46.3812C51.7382 48.6858 49.8934 49.3148 49.2915 49.3412Z" fill="white" stroke="black" stroke-width="3"/>
</svg>
