<svg width="70" height="72" viewBox="0 0 70 72" fill="none" xmlns="http://www.w3.org/2000/svg">
<rect x="30.9077" y="36.6831" width="10.5853" height="43.6631" rx="5.29263" transform="rotate(-40.4987 30.9077 36.6831)" fill="#118A5F" stroke="black" stroke-width="3"/>
<path d="M18.0548 3.55975C11.0451 8.3594 15.1341 16.0204 18.0548 19.2509C13.1357 16.3281 3.11308 12.9744 2.37521 22.9426C1.63735 32.9108 9.7538 32.6341 13.9043 31.2497C8.06286 33.8649 -1.4986 40.849 6.98681 47.8639C15.4722 54.8787 22.2052 48.633 24.511 44.6333C24.3573 48.1715 26.4479 54.4172 36.0401 51.0944C45.6323 47.7716 44.3411 39.5568 42.4964 35.8647C46.1857 38.0184 54.2099 40.1106 56.7925 31.2497C59.375 22.3888 48.3378 22.0196 42.4964 22.9426C46.9543 21.712 54.3022 17.4972 48.0304 10.4823C41.7585 3.46745 34.0417 7.55946 30.9673 10.4823C29.5838 6.17494 25.0645 -1.2399 18.0548 3.55975Z" fill="#F85F00" stroke="black" stroke-width="3"/>
<circle cx="29.2712" cy="27.0192" r="8.12271" fill="#FFD300" stroke="black" stroke-width="3"/>
</svg>
