<svg width="2438" height="2218" viewBox="0 0 2438 2218" fill="none" xmlns="http://www.w3.org/2000/svg">
<path d="M1895.45 1328.65C1816.32 1552.12 1371.36 1749.39 1001.79 1618.51C632.223 1487.64 478 1078.2 557.136 854.726C636.271 631.254 1129.59 390.331 1499.15 521.201C1868.72 652.071 1974.59 1105.18 1895.45 1328.65Z" fill="#FF6B6B"/>
<path d="M2278.97 1174.39C2344.53 1281.61 2277.11 1530.66 2099.8 1639.07C1922.5 1747.48 1702.45 1674.21 1636.89 1567C1571.33 1459.78 1636.93 1176.25 1814.24 1067.83C1991.54 959.421 2213.41 1067.18 2278.97 1174.39Z" fill="#FF6B6B"/>
<path d="M1873.97 1566.39C1939.53 1673.61 1872.11 1922.66 1694.81 2031.07C1517.5 2139.48 1297.45 2066.21 1231.89 1959C1166.34 1851.78 1231.93 1568.25 1409.24 1459.83C1586.55 1351.42 1808.42 1459.18 1873.97 1566.39Z" fill="#FF6B6B"/>
<path d="M1290.97 1566.39C1356.53 1673.61 1289.11 1922.66 1111.81 2031.07C934.501 2139.48 714.45 2066.21 648.893 1959C583.337 1851.78 648.934 1568.25 826.239 1459.83C1003.55 1351.42 1225.42 1459.18 1290.97 1566.39Z" fill="#FF6B6B"/>
<path d="M2185.97 676.395C2251.53 783.609 2184.11 1032.66 2006.8 1141.07C1829.5 1249.48 1609.45 1176.21 1543.89 1069C1478.33 961.781 1543.93 678.249 1721.24 569.835C1898.54 461.421 2120.41 569.18 2185.97 676.395Z" fill="#FF6B6B"/>
<path d="M1755.97 284.395C1821.53 391.609 1754.11 640.656 1576.81 749.07C1399.5 857.483 1179.45 784.21 1113.89 676.996C1048.34 569.781 1113.93 286.249 1291.24 177.835C1468.55 69.4216 1690.42 177.18 1755.97 284.395Z" fill="#FF6B6B"/>
<path d="M994.074 108.193C1115.46 140.718 1238.21 367.657 1184.42 568.4C1130.63 769.143 920.674 867.672 799.287 835.147C677.9 802.621 530.066 551.945 583.855 351.203C637.643 150.46 872.687 75.6675 994.074 108.193Z" fill="#FF6B6B"/>
<path d="M366.905 367.979C485.765 327.177 714.321 446.89 781.798 643.454C849.275 840.019 730.12 1039 611.26 1079.8C492.399 1120.61 229.78 995.208 162.303 798.643C94.8265 602.078 248.044 408.781 366.905 367.979Z" fill="#FF6B6B"/>
<path d="M235.711 1104.23C324.572 1015.37 582.483 1022.54 729.437 1169.49C876.391 1316.44 856.739 1547.54 767.878 1636.4C679.017 1725.26 388.008 1727.95 241.054 1581C94.1003 1434.05 146.85 1193.1 235.711 1104.23Z" fill="#FF6B6B"/>
</svg>
