<svg width="38" height="39" viewBox="0 0 38 39" fill="none" xmlns="http://www.w3.org/2000/svg">
<path d="M26.4629 38.7503L11.0004 38.7503C8.08398 38.7467 5.28807 37.5866 3.22587 35.5244C1.16368 33.4622 0.00356744 30.6663 0 27.7499L0 11.2494C0.00356744 8.33301 1.16368 5.53709 3.22587 3.47489C5.28807 1.4127 8.08398 0.252591 11.0004 0.249023L26.4629 0.249023C29.3793 0.252591 32.1752 1.4127 34.2374 3.47489C36.2996 5.53709 37.4597 8.33301 37.4632 11.2494L37.4632 27.7499C37.4597 30.6663 36.2996 33.4622 34.2374 35.5244C32.1752 37.5866 29.3793 38.7467 26.4629 38.7503ZM11.0004 3.07326C8.83185 3.07504 6.75256 3.93681 5.21855 5.46956C3.68455 7.0023 2.82106 9.08087 2.81749 11.2494L2.81749 27.7499C2.82106 29.9191 3.68433 31.9983 5.21814 33.5322C6.75195 35.066 8.83123 35.9292 11.0004 35.9328L26.4629 35.9328C28.6314 35.9292 30.71 35.0658 32.2427 33.5317C33.7755 31.9977 34.6372 29.9184 34.639 27.7499L34.639 11.2494C34.6372 9.08149 33.7752 7.0029 32.2423 5.46997C30.7094 3.93703 28.6308 3.07505 26.4629 3.07326L11.0004 3.07326Z" fill="white"/>
<path d="M18.7321 29.6776C16.0201 29.6741 13.4203 28.5947 11.5033 26.6764C9.58627 24.7581 8.50862 22.1577 8.50684 19.4457C8.51003 18.0635 8.78887 16.6958 9.32705 15.4227C9.86523 14.1496 10.6519 12.9966 11.6411 12.0312C12.5804 11.1067 13.697 10.3817 14.9237 9.89984C16.1504 9.41797 17.4618 9.18918 18.7792 9.22722C21.9675 9.32158 24.6097 10.3933 26.4229 12.3278C27.2967 13.2961 27.9705 14.4277 28.4054 15.6573C28.8404 16.887 29.0279 18.1905 28.9573 19.4929C28.9175 22.1975 27.833 24.782 25.9308 26.7051C24.987 27.6519 23.8648 28.4021 22.6291 28.9123C21.3935 29.4226 20.0689 29.6827 18.7321 29.6776ZM18.4961 12.6581C16.8271 12.6634 15.227 13.3243 14.0407 14.4982C13.3807 15.1423 12.8559 15.9117 12.4971 16.7613C12.1383 17.6108 11.9527 18.5235 11.9512 19.4457C11.9534 20.3362 12.131 21.2175 12.4738 22.0393C12.8166 22.8612 13.3179 23.6075 13.9492 24.2355C14.5804 24.8636 15.3292 25.3612 16.1527 25.7C16.9762 26.0387 17.8584 26.2119 18.7489 26.2097C19.6394 26.2075 20.5207 26.0299 21.3425 25.6871C22.1644 25.3443 22.9107 24.8429 23.5388 24.2117C24.1669 23.5805 24.6645 22.8317 25.0032 22.0082C25.3419 21.1847 25.5151 20.3025 25.5129 19.412C25.622 17.6891 25.0454 15.993 23.9087 14.6937C22.7359 13.44 20.9294 12.7457 18.6781 12.6716L18.4961 12.6581Z" fill="white"/>
<path d="M29.2064 11.3171C30.5242 11.3171 31.5925 10.2488 31.5925 8.93104C31.5925 7.61322 30.5242 6.54492 29.2064 6.54492C27.8886 6.54492 26.8203 7.61322 26.8203 8.93104C26.8203 10.2488 27.8886 11.3171 29.2064 11.3171Z" fill="white"/>
</svg>
