<svg width="1764" height="1735" viewBox="0 0 1764 1735" fill="none" xmlns="http://www.w3.org/2000/svg">
<path d="M1431.28 1170.53C1403.65 1184.37 1377.12 1191.6 1351.97 1193.7C1193.41 1206.96 991.404 1116.36 857.265 1030.77C783.642 983.8 731.954 910.636 722.251 849.896C702.165 784.394 741.044 711.509 793.117 650.054C863.692 566.763 903.359 451.572 976.263 370.31C1018.68 323.028 1076.63 300.802 1114.15 294.821C1325.01 265.785 1347.2 422.476 1317.63 529.951C1311.67 551.613 1303.43 572.817 1301.48 595.198C1296.19 655.878 1313.81 715.806 1338.82 767.152C1372.15 835.573 1446.35 870.795 1499.56 925.209C1520.76 946.881 1532.76 970.05 1538.47 992.694C1556.96 1066.04 1498.91 1136.66 1431.28 1170.53Z" fill="#474747"/>
<path d="M863.866 1561.96C978.156 1576.97 1055.81 1537.83 1106.91 1486.25C1167.48 1425.13 1123.36 1331.44 1043.79 1298.69C985.682 1274.77 918.242 1282.72 873.078 1326.4C776.362 1419.95 699.026 1540.3 863.866 1561.96Z" fill="#474747"/>
<path d="M722.664 1229.12C608.055 1370.95 501.04 1390.28 417.805 1362.33C302.006 1323.44 289.585 1161.99 406.572 1126.84C596.987 1055.68 926.785 976.503 722.664 1229.12Z" fill="#474747"/>
<path d="M468.989 975.178C166.333 1095.43 134.718 939.608 156.742 846.665C196.976 624.73 731.475 695.566 607.048 883.693C586.679 914.49 543.602 945.533 468.989 975.178Z" fill="#474747"/>
<path d="M790.933 488.682C611.052 667.285 459.618 509.12 398.571 395.064C393.2 385.03 391.133 373.502 393.275 362.323C418.458 230.863 558.216 205.239 627.69 209.366C760.513 224.621 979.113 301.84 790.933 488.682Z" fill="#474747"/>
</svg>
