<svg width="2332" height="2284" viewBox="0 0 2332 2284" fill="none" xmlns="http://www.w3.org/2000/svg">
<ellipse cx="2231.28" cy="1263.21" rx="61.3917" ry="89.1125" transform="rotate(77.5102 2231.28 1263.21)" fill="#F29DAE"/>
<ellipse cx="2211.48" cy="1023.27" rx="73.7016" ry="106.981" transform="rotate(77.3985 2211.48 1023.27)" fill="#F29DAE"/>
<ellipse cx="2157.88" cy="799.573" rx="80.741" ry="117.199" transform="rotate(59.953 2157.88 799.573)" fill="#F29DAE"/>
<ellipse cx="2076.83" cy="594.276" rx="94.37" ry="136.982" transform="rotate(59.953 2076.83 594.276)" fill="#F29DAE"/>
<ellipse cx="1870.85" cy="265.802" rx="222.647" ry="164.592" transform="rotate(-37.2641 1870.85 265.802)" fill="#F29DAE"/>
<path d="M186.5 2283.05C283.3 2045.45 102.5 1479.38 0 1226.05C330 1414.85 761.833 1002.71 936.5 773.045C1508.5 68.2454 1882.83 630.379 1998.5 999.545C2082.33 1182.38 2144.3 1621.55 1721.5 1915.55C1298.7 2209.55 522 2283.05 186.5 2283.05Z" fill="#F29DAE"/>
</svg>
