<svg width="1607" height="1462" viewBox="0 0 1607 1462" fill="none" xmlns="http://www.w3.org/2000/svg">
<path d="M1249.69 875.988C1197.51 1023.32 904.147 1153.38 660.489 1067.1C416.831 980.815 315.151 710.864 367.325 563.527C419.5 416.19 744.746 257.348 988.404 343.631C1232.06 429.915 1301.86 728.651 1249.69 875.988Z" fill="#FF6B6B"/>
<path d="M1502.55 774.287C1545.77 844.974 1501.32 1009.17 1384.42 1080.65C1267.52 1152.13 1122.44 1103.82 1079.22 1033.13C1036 962.444 1079.25 775.509 1196.15 704.031C1313.04 632.553 1459.33 703.599 1502.55 774.287Z" fill="#FF6B6B"/>
<path d="M1235.52 1032.74C1278.75 1103.42 1234.3 1267.62 1117.4 1339.1C1000.5 1410.58 855.416 1362.27 812.194 1291.58C768.972 1220.89 812.221 1033.96 929.12 962.48C1046.02 891.002 1192.3 962.048 1235.52 1032.74Z" fill="#FF6B6B"/>
<path d="M851.156 1032.74C894.378 1103.42 849.929 1267.62 733.03 1339.1C616.131 1410.58 471.049 1362.27 427.827 1291.58C384.605 1220.89 427.854 1033.96 544.753 962.48C661.652 891.002 807.934 962.048 851.156 1032.74Z" fill="#FF6B6B"/>
<path d="M1441.22 445.952C1484.44 516.639 1440 680.837 1323.1 752.315C1206.2 823.793 1061.12 775.484 1017.89 704.797C974.672 634.109 1017.92 447.174 1134.82 375.696C1251.72 304.218 1398 375.264 1441.22 445.952Z" fill="#FF6B6B"/>
<path d="M1157.73 187.504C1200.95 258.191 1156.5 422.389 1039.6 493.867C922.703 565.345 777.621 517.036 734.399 446.349C691.177 375.661 734.426 188.726 851.325 117.248C968.224 45.7702 1114.51 116.816 1157.73 187.504Z" fill="#FF6B6B"/>
<path d="M655.395 71.3325C735.426 92.7767 816.357 242.399 780.894 374.751C745.43 507.102 607.001 572.063 526.97 550.619C446.939 529.174 349.471 363.902 384.934 231.551C420.397 99.1995 575.364 49.8882 655.395 71.3325Z" fill="#FF6B6B"/>
<path d="M241.902 242.611C320.268 215.71 470.957 294.637 515.445 424.234C559.933 553.831 481.373 685.021 403.007 711.922C324.642 738.824 151.495 656.148 107.007 526.551C62.5188 396.955 163.536 269.512 241.902 242.611Z" fill="#FF6B6B"/>
<path d="M155.406 728.029C213.992 669.443 384.035 674.165 480.923 771.053C577.811 867.941 564.854 1020.3 506.267 1078.89C447.681 1137.48 255.816 1139.25 158.928 1042.36C62.0405 945.477 96.8187 786.616 155.406 728.029Z" fill="#FF6B6B"/>
</svg>
